<svg xmlns="http://www.w3.org/2000/svg" width="21.434" height="21.429" viewBox="0 0 21.434 21.429"><path d="M10.714,7.458a5.494,5.494,0,1,0,5.494,5.494A5.486,5.486,0,0,0,10.714,7.458Zm0,9.066a3.572,3.572,0,1,1,3.572-3.572,3.578,3.578,0,0,1-3.572,3.572Zm7-9.291a1.282,1.282,0,1,1-1.282-1.281A1.279,1.279,0,0,1,17.715,7.233Zm3.639,1.3a6.342,6.342,0,0,0-1.731-4.49,6.384,6.384,0,0,0-4.49-1.731c-1.769-.1-7.072-.1-8.841,0A6.374,6.374,0,0,0,1.8,4.039,6.363,6.363,0,0,0,.07,8.529c-.1,1.769-.1,7.072,0,8.841A6.342,6.342,0,0,0,1.8,21.861a6.392,6.392,0,0,0,4.49,1.731c1.769.1,7.072.1,8.841,0a6.342,6.342,0,0,0,4.49-1.731,6.383,6.383,0,0,0,1.731-4.49c.1-1.769.1-7.067,0-8.837ZM19.068,19.269a3.616,3.616,0,0,1-2.037,2.037c-1.411.559-4.758.43-6.317.43s-4.911.124-6.317-.43A3.616,3.616,0,0,1,2.36,19.269c-.559-1.411-.43-4.758-.43-6.317s-.124-4.911.43-6.317A3.616,3.616,0,0,1,4.4,4.6c1.411-.559,4.758-.43,6.317-.43s4.911-.124,6.317.43a3.616,3.616,0,0,1,2.037,2.037c.559,1.411.43,4.758.43,6.317S19.627,17.863,19.068,19.269Z" transform="translate(0.005 -2.238)" fill="#d2ae6d"/></svg>