<svg xmlns="http://www.w3.org/2000/svg" width="20.291" height="20.291" viewBox="0 0 20.291 20.291"><path d="M18.456,0H1.836A1.836,1.836,0,0,0,0,1.836v16.62a1.836,1.836,0,0,0,1.836,1.836h16.62a1.836,1.836,0,0,0,1.836-1.836V1.836A1.836,1.836,0,0,0,18.456,0ZM6.279,17.521a.534.534,0,0,1-.534.534H3.471a.534.534,0,0,1-.534-.534V7.989a.534.534,0,0,1,.534-.534H5.745a.534.534,0,0,1,.534.534ZM4.608,6.557A2.16,2.16,0,1,1,6.768,4.4,2.16,2.16,0,0,1,4.608,6.557ZM18.162,17.564a.491.491,0,0,1-.491.491h-2.44a.491.491,0,0,1-.491-.491V13.093c0-.667.2-2.923-1.743-2.923-1.5,0-1.809,1.544-1.87,2.237v5.157a.491.491,0,0,1-.491.491H8.276a.491.491,0,0,1-.491-.491V7.946a.491.491,0,0,1,.491-.491h2.36a.491.491,0,0,1,.491.491v.832A3.35,3.35,0,0,1,14.277,7.3c3.907,0,3.885,3.65,3.885,5.656v4.613Z" fill="#d2ae6d"/></svg>