<svg xmlns="http://www.w3.org/2000/svg" width="24.625" height="20" viewBox="0 0 24.625 20"><path d="M22.093,8.365c.016.219.016.438.016.656A14.261,14.261,0,0,1,7.75,23.38,14.262,14.262,0,0,1,0,21.115a10.44,10.44,0,0,0,1.219.062,10.107,10.107,0,0,0,6.266-2.156,5.056,5.056,0,0,1-4.719-3.5,6.365,6.365,0,0,0,.953.078,5.338,5.338,0,0,0,1.328-.172A5.047,5.047,0,0,1,1,10.474v-.062a5.083,5.083,0,0,0,2.281.641A5.054,5.054,0,0,1,1.719,4.3,14.345,14.345,0,0,0,12.125,9.584,5.7,5.7,0,0,1,12,8.428a5.052,5.052,0,0,1,8.734-3.453,9.936,9.936,0,0,0,3.2-1.219,5.033,5.033,0,0,1-2.219,2.781,10.117,10.117,0,0,0,2.906-.781A10.849,10.849,0,0,1,22.093,8.365Z" transform="translate(0 -3.381)" fill="#d2ae6d"/></svg>