<svg xmlns="http://www.w3.org/2000/svg" width="77.263" height="88.904" viewBox="0 0 77.263 88.904"><g transform="translate(588.22 1688.521)"><g transform="translate(-588.22 -1679.067)"><path d="M-514.825-1638.07h-69.527a3.872,3.872,0,0,0-3.868,3.868v71.714a3.872,3.872,0,0,0,3.868,3.868h69.527a3.872,3.872,0,0,0,3.868-3.868V-1634.2A3.872,3.872,0,0,0-514.825-1638.07Zm-.3,75.284h-68.931v-47.51h68.931Zm0-52.141h-68.931V-1633.9h68.931Z" transform="translate(588.22 1638.07)" fill="#373435"/><rect width="68.931" height="18.977" transform="translate(4.166 4.166)" fill="#55efc4"/></g><g transform="translate(-573.309 -1688.521)"><path d="M-503.059-1663.342a2.316,2.316,0,0,1-2.316-2.316v-20a2.316,2.316,0,0,1,2.316-2.316,2.316,2.316,0,0,1,2.316,2.316v20A2.316,2.316,0,0,1-503.059-1663.342Z" transform="translate(505.375 1687.975)" fill="#373435"/></g><g transform="translate(-530.309 -1688.521)"><path d="M-259.209-1663.342a2.316,2.316,0,0,1-2.316-2.316v-20a2.316,2.316,0,0,1,2.316-2.316,2.316,2.316,0,0,1,2.316,2.316v20A2.316,2.316,0,0,1-259.209-1663.342Z" transform="translate(261.525 1687.975)" fill="#373435"/></g><g transform="translate(-556.588 -1644.59)"><path d="M-408.7-1408.217a2.305,2.305,0,0,1-1.251-.368,2.316,2.316,0,0,1-.694-3.2l20.638-32.076a2.316,2.316,0,0,1,3.2-.694,2.316,2.316,0,0,1,.694,3.2l-20.638,32.076A2.315,2.315,0,0,1-408.7-1408.217Z" transform="translate(411.012 1444.926)" fill="#373435"/></g><g transform="translate(-579.162 -1646.366)"><path d="M-526.8-1434.338h-8.354a2.316,2.316,0,0,1-2.316-2.316v-7.872a2.316,2.316,0,0,1,2.316-2.316h6.038v-3.4h-6.038a2.316,2.316,0,0,1-2.316-2.316,2.316,2.316,0,0,1,2.316-2.316h8.354a2.316,2.316,0,0,1,2.316,2.316v8.032a2.316,2.316,0,0,1-2.316,2.316h-6.038v3.24h6.038a2.316,2.316,0,0,1,2.316,2.316A2.316,2.316,0,0,1-526.8-1434.338Z" transform="translate(537.475 1454.875)" fill="#373435"/></g><g transform="translate(-563.257 -1646.366)"><path d="M-438.026-1434.338a2.316,2.316,0,0,1-2.316-2.316v-5.636h-5.717a2.316,2.316,0,0,1-2.316-2.316v-7.952a2.316,2.316,0,0,1,2.316-2.316,2.316,2.316,0,0,1,2.316,2.316v5.636h3.4v-5.636a2.316,2.316,0,0,1,2.316-2.316,2.316,2.316,0,0,1,2.316,2.316v15.9A2.316,2.316,0,0,1-438.026-1434.338Z" transform="translate(448.375 1454.875)" fill="#373435"/></g><g transform="translate(-535.446 -1629.569)"><path d="M-283.992-1339.594a2.316,2.316,0,0,1-.649-.093,2.316,2.316,0,0,1-1.576-2.872l3.957-13.583h-8a2.316,2.316,0,0,1-2.316-2.316,2.316,2.316,0,0,1,2.316-2.316h11.085a2.315,2.315,0,0,1,1.852.926,2.315,2.315,0,0,1,.371,2.038l-4.82,16.547A2.317,2.317,0,0,1-283.992-1339.594Z" transform="translate(292.575 1360.774)" fill="#373435"/></g></g></svg>