<svg xmlns="http://www.w3.org/2000/svg" width="80.818" height="89.354" viewBox="0 0 80.818 89.354"><g transform="translate(576.88 1073.95)"><g transform="translate(-576.88 -1065.414)"><path d="M-502.513-1007.016q-.381-.589-.786-1.168-.883-1.263-1.869-2.467-1.282-1.562-2.729-3.013-1.131-1.131-2.333-2.158-1.173-1.007-2.412-1.913-.468-.344-.944-.673a2.6,2.6,0,0,1,.227,1.066,2.621,2.621,0,0,1-2.618,2.62,2.616,2.616,0,0,1-2.25-1.281c-.465.981-.964,2.068-1.5,3.273-.906,2.04-1.917,4.419-3.05,7.192q-.566,1.385-1.172,2.9c-.072.18-.134.337-.185.463-.06.15-.106.263-.134.331a6.7,6.7,0,0,1-.758,1.1l-.363.458a26.965,26.965,0,0,0-3.474,5.321c-.641,1.343-1.8,2.144-3.409,3.256a23.4,23.4,0,0,0-5.89,5.342,7.581,7.581,0,0,0,.037,9.267,9.132,9.132,0,0,0,10.191,3.445c.89-.3,1.744-.6,2.569-.883,4.162-1.441,7.451-2.581,9.962-2.43.266.07,2.1.758,8.138,6.951.839.86,1.651,1.716,2.4,2.518a36.274,36.274,0,0,1-4.109,5.894c-6.963-2.782-19.289-7.37-25.35-7.6-3.173-.122-5.418.749-6.665,2.59-2.234,3.3-.336,8.263,1.8,13.066a7.645,7.645,0,0,1,.437,4.567,35.944,35.944,0,0,1-17.459-5.8c-1.147-1.753-.883-2.171.758-4.789a38.907,38.907,0,0,0,4.343-8.9c1.4-4.142,1.291-7.291-.335-9.625-1.418-2.037-3.67-2.9-5.314-3.538a7.99,7.99,0,0,1-1.734-.8c-.49-.455-.747-2.269-.9-3.353-.271-1.912-.529-3.716-1.986-4.609a2.975,2.975,0,0,0-2.569-.232,60.282,60.282,0,0,1-8.452,1.293,35.822,35.822,0,0,1,1.959-8.2,42.5,42.5,0,0,0,6.161,1.531,24.287,24.287,0,0,0,3.922.354c2.949,0,5.118-.733,6.47-2.192a28.848,28.848,0,0,0,3.806-5.619c.721-1.276,1.806-3.2,2.356-3.39a28.14,28.14,0,0,1,3.728-.1c4.877.041,10.307.086,12.913-2.222a4.5,4.5,0,0,0,.974-1.21c.034-.062.065-.125.1-.189a25.537,25.537,0,0,0,1.438-4c.446-1.559.823-3.168,1.14-4.519.074-.314.153-.654.231-.978a35.665,35.665,0,0,1,5.347,1.882,35.446,35.446,0,0,1,3.423,1.741,2.649,2.649,0,0,1-.157-.9,2.618,2.618,0,0,1,2.579-2.616c-.056-.035-.115-.069-.171-.1a39.625,39.625,0,0,0-3.585-1.852,39.8,39.8,0,0,0-6.822-2.377,40.171,40.171,0,0,0-4.433-.849,41.009,41.009,0,0,0-5.444-.361,40.14,40.14,0,0,0-28.573,11.836,40.14,40.14,0,0,0-11.836,28.572,40.14,40.14,0,0,0,11.836,28.573,40.1,40.1,0,0,0,24.686,11.653q1.927.182,3.887.183c.257,0,.514,0,.772-.009a40.125,40.125,0,0,0,27.8-11.828l.058-.058a41.282,41.282,0,0,0,2.985-3.342,40.443,40.443,0,0,0,2.99-4.28,39.787,39.787,0,0,0,2.116-3.977,40.308,40.308,0,0,0,3.686-16.916A40.129,40.129,0,0,0-502.513-1007.016Zm-33.959-14.255a36.237,36.237,0,0,1,3.881.208q.621.066,1.235.153c-.063.268-.13.553-.2.853-.122.518-.259,1.1-.407,1.706-.234.965-.5,2-.788,2.981-.053.176-.106.352-.159.523a17.766,17.766,0,0,1-.913,2.43c0,.007-.453.666-3.268,1.015a55.854,55.854,0,0,1-6.877.226,22.111,22.111,0,0,0-4.81.226c-2.268.58-3.531,2.819-4.991,5.411a25.63,25.63,0,0,1-3.224,4.82c-.555.6-1.748.842-3.24.842a30.432,30.432,0,0,1-8.515-1.55A36.218,36.218,0,0,1-536.471-1021.271Zm-24.363,62.9a36.1,36.1,0,0,1-11.817-26.7,89.27,89.27,0,0,0,8.9-1.251c.065.37.123.788.171,1.119.277,1.952.622,4.382,2.209,5.855a9.282,9.282,0,0,0,3.092,1.647c2.992,1.152,5.152,1.984,3.163,7.86a34.631,34.631,0,0,1-3.918,8.015A15.672,15.672,0,0,0-560.834-958.367Zm26.363,9.4a11.574,11.574,0,0,0-.855-6.3c-.893-2.01-3.266-7.349-2.164-8.979.363-.536,1.429-.8,3-.737,5,.192,15.452,3.973,22.321,6.665A36.032,36.032,0,0,1-534.471-948.967Zm31.566-22.619c-.506-.53-1.029-1.075-1.565-1.621-6.716-6.854-9.132-7.877-10.608-7.974-3.369-.224-7.032,1.045-11.667,2.652-.814.282-1.66.574-2.539.87a4.9,4.9,0,0,1-5.409-1.91,3.456,3.456,0,0,1-.09-4.248,19.281,19.281,0,0,1,4.919-4.412c1.817-1.256,3.693-2.553,4.82-4.909a19.876,19.876,0,0,1,2.183-3.51c.273-.359.537-.692.786-1.006a11.517,11.517,0,0,0,1.713-2.56c.035-.086.1-.231.174-.43.048-.122.1-.264.169-.425,1.706-4.269,3.138-7.654,4.338-10.337.4-.9.773-1.711,1.124-2.456q.938.716,1.829,1.494a36.317,36.317,0,0,1,4.759,5.016,36.166,36.166,0,0,1,2.4,3.462.1.1,0,0,1,.014.023,35.939,35.939,0,0,1,5.265,18.775A35.98,35.98,0,0,1-502.905-971.586Z" transform="translate(576.88 1025.5)" fill="#373435"/></g><g transform="translate(-533.066 -1073.95)"><g transform="translate(0.006 0)"><path d="M-311.229-1073.95a16.956,16.956,0,0,0-14.907,8.9,16.817,16.817,0,0,0-1.563,4.075,16.833,16.833,0,0,0-.47,3.968c0,.132,0,.263.005.395,0,.2.012.405.026.606.025.419.063.837.12,1.247a16.751,16.751,0,0,0,1.82,5.677,17.053,17.053,0,0,0,4.426,5.324,17.066,17.066,0,0,0,2.532,1.674,16.793,16.793,0,0,0,3.938,1.521l-2.581-4.886-.59-1.119a12.737,12.737,0,0,1-5.215-7.916,12.67,12.67,0,0,1-.252-2.523,12.631,12.631,0,0,1,.09-1.513,12.628,12.628,0,0,1,2.148-5.68,12.707,12.707,0,0,1,10.474-5.518,12.731,12.731,0,0,1,12.622,11.2,12.631,12.631,0,0,1,.09,1.513,12.616,12.616,0,0,1-1.76,6.445,12.729,12.729,0,0,1-2.8,3.3q-.447.375-.927.708l-3.166,6a16.867,16.867,0,0,0,6.461-3.18c.016-.012.03-.025.046-.039a17.067,17.067,0,0,0,3.043-3.15,16.834,16.834,0,0,0,3.311-9.225.022.022,0,0,0,0-.01c.005-.1.009-.2.012-.307.005-.178.009-.358.009-.537A16.959,16.959,0,0,0-311.229-1073.95Z" transform="translate(328.17 1073.95)" fill="#373435"/></g><g transform="translate(0 15.427)"><path d="M-294.627-985.366a2.112,2.112,0,0,0-1.811-1.024h-2.2a12.631,12.631,0,0,1,.09,1.513,12.617,12.617,0,0,1-1.76,6.445,12.73,12.73,0,0,1-2.8,3.3q-.447.375-.927.708l-3.166,6-4.065,7.693-4.061-7.689-.005-.009-2.581-4.886-.59-1.119a12.736,12.736,0,0,1-5.215-7.916,12.671,12.671,0,0,1-.252-2.523,12.631,12.631,0,0,1,.09-1.513h-2.211a2.118,2.118,0,0,0-1.01.257,2.112,2.112,0,0,0-.8.766,2.069,2.069,0,0,0-.292.885,2.062,2.062,0,0,0,.026.606,2.128,2.128,0,0,0,.206.588l.072.136,2.636,4.99,3.452,6.535,1.64,3.1,2.162,4.095,4.865,9.208a2.115,2.115,0,0,0,1.869,1.126,2.113,2.113,0,0,0,1.869-1.126l8.656-16.387.032-.062,2.271-4.3,3.867-7.323a2.086,2.086,0,0,0,.229-.735.023.023,0,0,0,0-.011,1.977,1.977,0,0,0,.012-.307A2.093,2.093,0,0,0-294.627-985.366Z" transform="translate(328.203 986.39)" fill="#373435"/></g><g transform="translate(4.234 4.229)"><path d="M-259.005-1012.93a5.911,5.911,0,0,0-3.8,1.372,5.942,5.942,0,0,0-2.09,3.725,6.087,6.087,0,0,0-.06.846,5.943,5.943,0,0,0,2.2,4.613,5.928,5.928,0,0,0,3.748,1.332c.1,0,.2,0,.3-.007a5.918,5.918,0,0,0,2.953-.962,5.959,5.959,0,0,0,2.5-3.455,5.936,5.936,0,0,0,.2-1.521A5.951,5.951,0,0,0-259.005-1012.93Zm0,8.563a2.616,2.616,0,0,1-2.25-1.281,2.7,2.7,0,0,1-.211-.444,2.648,2.648,0,0,1-.157-.9,2.618,2.618,0,0,1,2.579-2.616.294.294,0,0,1,.039,0,2.621,2.621,0,0,1,2.391,1.552,2.6,2.6,0,0,1,.227,1.066A2.621,2.621,0,0,1-259.005-1004.367Z" transform="translate(271.86 1019.453)" fill="#373435"/><path d="M-278.836-1038.751a12.731,12.731,0,0,0-12.622-11.2,12.707,12.707,0,0,0-10.474,5.518,12.63,12.63,0,0,0-2.148,5.68,12.622,12.622,0,0,0-.09,1.514,12.674,12.674,0,0,0,.252,2.523,12.736,12.736,0,0,0,5.215,7.916l.59,1.119,2.581,4.886.005.009,4.061,7.689,4.065-7.692,3.166-6q.481-.333.927-.708a12.726,12.726,0,0,0,2.8-3.3,12.616,12.616,0,0,0,1.76-6.445A12.622,12.622,0,0,0-278.836-1038.751Zm-12.183,7.2c-.1.005-.2.007-.3.007a5.928,5.928,0,0,1-3.748-1.332,5.943,5.943,0,0,1-2.2-4.613,6.088,6.088,0,0,1,.06-.846,5.942,5.942,0,0,1,2.09-3.725,5.911,5.911,0,0,1,3.8-1.372,5.951,5.951,0,0,1,5.945,5.943,5.938,5.938,0,0,1-.2,1.521,5.959,5.959,0,0,1-2.5,3.455A5.918,5.918,0,0,1-291.019-1031.547Z" transform="translate(304.17 1049.95)" fill="#ff7675"/></g></g></g></svg>
