<svg xmlns="http://www.w3.org/2000/svg" width="106.544" height="66.586" viewBox="0 0 106.544 66.586"><g transform="translate(302.9 2215.625)"><g transform="translate(-302.9 -2215.625)"><path d="M-198.577-2211.187c-17.428,0-27.1,4.461-27.5,4.647a2.209,2.209,0,0,0-1.184,1.382,2.217,2.217,0,0,0,.133,1.6c-3.354-1.271-8.037-3.119-12.714-5.215-8.01-3.581-13.174-2.489-18.9,2.029H-276.5c.094-.71.171-1.388.227-2.029a2.207,2.207,0,0,0-.685-1.8c-3.8-3.6-19.018-4.771-23.589-5.042a2.2,2.2,0,0,0-1.656.6,2.219,2.219,0,0,0-.7,1.615v39.954a2.221,2.221,0,0,0,2.22,2.22h13.318a2.218,2.218,0,0,0,2.108-1.531c.046-.137.231-.71.522-1.621.506.522,1.061,1.1,1.64,1.708,1.979,2.068,4.027,4.209,5.4,5.363,8.268,6.921,18.2,14.394,20.181,15.694a17.035,17.035,0,0,0,7.881,2.583,7.641,7.641,0,0,0,5.038-1.482,6.914,6.914,0,0,0,5.048-.054,8.746,8.746,0,0,0,4.622-4.266,8.591,8.591,0,0,0,5.571-.8,7.526,7.526,0,0,0,3.706-3.871,7.267,7.267,0,0,0,5.092-1.825,7,7,0,0,0,2.408-6.734l3.515-2.36c.248.8.447,1.475.6,2.008a2.219,2.219,0,0,0,2.139,1.63h13.318a2.221,2.221,0,0,0,2.22-2.22v-39.954A2.218,2.218,0,0,0-198.577-2211.187Zm-90.406,35.515h-9.479v-35.355c7.136.564,14.833,1.788,17.63,3.146C-282.01-2198.159-287.331-2180.885-288.983-2175.672Zm65.547,10.956a2.536,2.536,0,0,1-2.647.591l-.006,0c-1.661-1.332-8.692-8.534-13.054-13.081a2.215,2.215,0,0,0-3.138-.066,2.218,2.218,0,0,0-.067,3.14c1.03,1.072,9.327,9.722,12.654,12.756a3.091,3.091,0,0,1-1.646,1.765,3.453,3.453,0,0,1-3.427.1.051.051,0,0,0-.017-.012.073.073,0,0,0-.015-.012,1.488,1.488,0,0,0-.123-.11c-2.659-2.127-9.341-9.225-10.85-10.869a2.227,2.227,0,0,0-3.14-.133,2.227,2.227,0,0,0-.133,3.14c.073.075,6.588,7.11,10.274,10.411a4.3,4.3,0,0,1-2.37,2.379,2.35,2.35,0,0,1-2.5-.354c-.017-.014-.031-.029-.048-.042a.623.623,0,0,0-.067-.062c-3.165-2.668-9.641-9.562-10.906-10.917a2.218,2.218,0,0,0-3.138-.106,2.221,2.221,0,0,0-.108,3.138c1.5,1.609,5.983,6.362,9.341,9.525a8.187,8.187,0,0,1-1.061.061,12.78,12.78,0,0,1-5.437-1.861c-1.559-1.026-11.331-8.315-19.769-15.382-1.186-1-3.236-3.138-5.048-5.03-1.321-1.38-2.551-2.655-3.365-3.421,1.854-6.122,4.534-15.5,6.01-23.14h13.613c-3.032,3.049-7.117,9.16-6.056,13.647a5.483,5.483,0,0,0,3.812,4c5.03,1.661,9.62.071,13.039-4.466a11.224,11.224,0,0,0,3.334-1.055c.416-.187.905-.4,1.554-.666,2.539,2.383,5.966,5.159,9.574,8.074,6.526,5.279,13.926,11.262,15.59,14.725A2.6,2.6,0,0,1-223.435-2164.716Zm3.327-7.385c-3.061-4.089-9.354-9.181-15.465-14.123-4.031-3.259-7.839-6.341-10.267-8.769a2.221,2.221,0,0,0-2.322-.518c-1.5.541-2.42.957-3.146,1.281a7.361,7.361,0,0,1-2.98.818,2.214,2.214,0,0,0-1.625.972c-3.138,4.693-6.388,4.293-8.559,3.565-.693-.231-.816-.529-.882-.814-.466-1.948,1.873-6.484,4.9-9.516,7.215-7.219,10.933-9.027,18.791-5.514,7.437,3.325,14.885,6.047,17.2,6.877,2.605,6.332,6.126,16.181,8.407,23.015Zm19.313.868h-9.439c-2.1-6.855-8.32-24.728-11.786-32.115a72.313,72.313,0,0,1,21.225-3.373Z" transform="translate(302.9 2215.625)" fill="#373435"/></g><g transform="translate(-298.461 -2211.027)"><path d="M-263.94-2190.384c-1.178,9.722-6.5,27-8.151,32.208h-9.479v-35.355C-274.435-2192.966-266.737-2191.743-263.94-2190.384Z" transform="translate(281.57 2193.53)" fill="#74b9ff"/></g><g transform="translate(-265.415 -2206.721)"><path d="M107-2172.84v35.488H97.556c-2.1-6.855-8.32-24.728-11.786-32.115A72.313,72.313,0,0,1,107-2172.84Z" transform="translate(-42.375 2172.84)" fill="#74b9ff"/></g></g></svg>
